<?xml version="1.0" encoding="utf-8"?>
<!-- Generator: Adobe Illustrator 24.3.0, SVG Export Plug-In . SVG Version: 6.00 Build 0)  -->
<svg version="1.1" id="Layer_1" xmlns="http://www.w3.org/2000/svg" xmlns:xlink="http://www.w3.org/1999/xlink" x="0px" y="0px"
	 viewBox="0 0 210 79" style="enable-background:new 0 0 210 79;" xml:space="preserve">
<style type="text/css">
	.st0{fill:#2353AA;}
	.st1{fill:#2353AA;}
	.st2{clip-path:url(#SVGID_2_);fill:#003CFF;}
	.st3{fill:#FFFFFF;}
</style>
<g>
	<path class="st0" d="M210,69c0,5.5-4.5,10-10,10H10C4.5,79,0,74.5,0,69V19C0,13.5,4.5,9,10,9h190c5.5,0,10,4.5,10,10V69z"/>
	<path class="st1" d="M210,60c0,5.5-4.5,10-10,10H10C4.5,70,0,65.5,0,60V10C0,4.5,4.5,0,10,0h190c5.5,0,10,4.5,10,10V60z"/>
	<g>
		<g>
			<g>
				<defs>
					<path id="SVGID_1_" d="M210,60c0,5.5-4.5,10-10,10H10C4.5,70,0,65.5,0,60V10C0,4.5,4.5,0,10,0h190c5.5,0,10,4.5,10,10V60z"/>
				</defs>
				<clipPath id="SVGID_2_">
					<use xlink:href="#SVGID_1_"  style="overflow:visible;"/>
				</clipPath>
				<polygon class="st2" points="209,2.4 3,70 215.8,70 				"/>
			</g>
		</g>
	</g>
</g>
<g>
	<path class="st3" d="M73.3,46.8V23.2h3.3l7.6,11.9c1.8,2.8,3.1,5.3,4.2,7.7l0.1,0c-0.3-3.2-0.4-6-0.4-9.7v-9.9H91v23.6h-3.1
		l-7.5-12c-1.6-2.6-3.2-5.3-4.4-7.9l-0.1,0c0.2,3,0.2,5.8,0.2,9.7v10.1H73.3z"/>
	<path class="st3" d="M97.9,38.9c0.1,4.2,2.7,5.9,5.8,5.9c2.2,0,3.5-0.4,4.7-0.9l0.5,2.2c-1.1,0.5-2.9,1-5.6,1
		c-5.2,0-8.3-3.4-8.3-8.5c0-5.1,3-9.1,7.9-9.1c5.5,0,7,4.9,7,8c0,0.6-0.1,1.1-0.1,1.4H97.9z M107,36.7c0-2-0.8-5-4.3-5
		c-3.1,0-4.5,2.9-4.7,5H107z"/>
	<path class="st3" d="M115.1,29.8l2.4,3.6c0.6,0.9,1.2,1.8,1.7,2.8h0.1c0.6-1,1.1-1.9,1.7-2.8l2.4-3.6h3.3l-5.8,8.2l6,8.8h-3.5
		l-2.5-3.8c-0.7-1-1.2-1.9-1.8-2.9H119c-0.6,1-1.2,1.9-1.8,2.9l-2.5,3.8h-3.4l6-8.6l-5.7-8.3H115.1z"/>
	<path class="st3" d="M134,25v4.9h4.4v2.3H134v9.1c0,2.1,0.6,3.3,2.3,3.3c0.8,0,1.4-0.1,1.8-0.2l0.1,2.3c-0.6,0.2-1.5,0.4-2.7,0.4
		c-1.4,0-2.6-0.5-3.3-1.3c-0.9-0.9-1.2-2.4-1.2-4.4v-9.2h-2.6v-2.3h2.6v-4.1L134,25z"/>
</g>
</svg>
