<?xml version="1.0" encoding="utf-8"?>
<!-- Generator: Adobe Illustrator 24.3.0, SVG Export Plug-In . SVG Version: 6.00 Build 0)  -->
<svg version="1.1" id="Layer_1" xmlns="http://www.w3.org/2000/svg" xmlns:xlink="http://www.w3.org/1999/xlink" x="0px" y="0px"
	 viewBox="0 0 210 79" style="enable-background:new 0 0 210 79;" xml:space="preserve">
<style type="text/css">
	.st0{fill:#2353AA;}
	.st1{fill:#2353AA;}
	.st2{clip-path:url(#SVGID_2_);fill:#524E9B;}
	.st3{fill:#FFFFFF;}
</style>
<g>
	<path class="st0" d="M210,69c0,5.5-4.5,10-10,10H10C4.5,79,0,74.5,0,69V19C0,13.5,4.5,9,10,9h190c5.5,0,10,4.5,10,10V69z"/>
	<path class="st1" d="M210,60c0,5.5-4.5,10-10,10H10C4.5,70,0,65.5,0,60V10C0,4.5,4.5,0,10,0h190c5.5,0,10,4.5,10,10V60z"/>
	<g>
		<g>
			<g>
				<defs>
					<path id="SVGID_1_" d="M210,60c0,5.5-4.5,10-10,10H10C4.5,70,0,65.5,0,60V10C0,4.5,4.5,0,10,0h190c5.5,0,10,4.5,10,10V60z"/>
				</defs>
				<clipPath id="SVGID_2_">
					<use xlink:href="#SVGID_1_"  style="overflow:visible;"/>
				</clipPath>
				<polygon class="st2" points="209,2.4 3,70 215.8,70 				"/>
			</g>
		</g>
	</g>
</g>
<g>
	<path class="st3" d="M75.9,23.5c1.5-0.2,3.4-0.5,5.8-0.5c3,0,5.2,0.7,6.6,2c1.3,1.1,2.1,2.8,2.1,4.9c0,2.1-0.6,3.8-1.8,5
		c-1.6,1.7-4.2,2.6-7.2,2.6c-0.9,0-1.8,0-2.5-0.2v9.5h-3V23.5z M78.9,34.8c0.7,0.2,1.5,0.2,2.5,0.2c3.7,0,5.9-1.8,5.9-5
		c0-3.1-2.2-4.6-5.6-4.6c-1.3,0-2.3,0.1-2.9,0.2V34.8z"/>
	<path class="st3" d="M93.9,35.1c0-2,0-3.7-0.1-5.3h2.7l0.1,3.3h0.1c0.8-2.3,2.6-3.7,4.7-3.7c0.3,0,0.6,0,0.9,0.1v2.9
		c-0.3-0.1-0.6-0.1-1-0.1c-2.2,0-3.7,1.6-4.1,4c-0.1,0.4-0.1,0.9-0.1,1.4v9h-3V35.1z"/>
	<path class="st3" d="M106.7,38.9c0.1,4.2,2.7,5.9,5.8,5.9c2.2,0,3.5-0.4,4.7-0.9l0.5,2.2c-1.1,0.5-2.9,1-5.6,1
		c-5.2,0-8.3-3.4-8.3-8.5c0-5.1,3-9.1,7.9-9.1c5.5,0,7,4.9,7,8c0,0.6-0.1,1.1-0.1,1.4H106.7z M115.7,36.7c0-2-0.8-5-4.3-5
		c-3.1,0-4.5,2.9-4.7,5H115.7z"/>
	<path class="st3" d="M123.7,29.8l3.3,9.5c0.6,1.5,1,2.9,1.4,4.3h0.1c0.4-1.4,0.9-2.8,1.4-4.3l3.3-9.5h3.2l-6.7,16.9h-2.9l-6.4-16.9
		H123.7z"/>
</g>
</svg>
